<svg xmlns="http://www.w3.org/2000/svg" width="28.304" height="12.582" viewBox="0 0 28.304 12.582">
  <path id="arrow" d="M123.9-637.584h23.271a1.1,1.1,0,0,0,.814-.322,1.1,1.1,0,0,0,.322-.814,1.1,1.1,0,0,0-.322-.814,1.1,1.1,0,0,0-.814-.322H123.86l3.254-3.254a1.027,1.027,0,0,0,.3-.757,1.089,1.089,0,0,0-.341-.795,1.089,1.089,0,0,0-.795-.341,1.089,1.089,0,0,0-.795.341l-5.146,5.146a1.152,1.152,0,0,0-.265.378,1.111,1.111,0,0,0-.076.416,1.111,1.111,0,0,0,.076.416,1.154,1.154,0,0,0,.265.378l5.146,5.146a1.069,1.069,0,0,0,.814.359,1.143,1.143,0,0,0,.776-.359,1.111,1.111,0,0,0,.341-.814,1.05,1.05,0,0,0-.3-.776Z" transform="translate(-120 645)" fill="#fff"/>
</svg>
