<svg xmlns="http://www.w3.org/2000/svg" width="18" height="10.207" viewBox="0 0 18 10.207">
  <path id="expand_more_FILL0_wght400_GRAD0_opsz48" d="M261.02-615a1.16,1.16,0,0,0-.435.079,1.2,1.2,0,0,0-.4.277l-7.833,7.833a1.139,1.139,0,0,0-.356.831,1.138,1.138,0,0,0,.356.831,1.161,1.161,0,0,0,.851.356,1.161,1.161,0,0,0,.851-.356l6.963-6.962,6.963,6.962a1.138,1.138,0,0,0,.831.356,1.138,1.138,0,0,0,.831-.356A1.161,1.161,0,0,0,270-606a1.161,1.161,0,0,0-.356-.85l-7.793-7.793a1.2,1.2,0,0,0-.4-.277A1.159,1.159,0,0,0,261.02-615Z" transform="translate(-252 615)" fill="#08454a"/>
</svg>
