<svg xmlns="http://www.w3.org/2000/svg" width="28.304" height="12.582" viewBox="0 0 28.304 12.582">
  <path id="arrow" d="M144.406-637.584H121.135a1.1,1.1,0,0,1-.814-.322,1.1,1.1,0,0,1-.322-.814,1.1,1.1,0,0,1,.322-.814,1.1,1.1,0,0,1,.814-.322h23.309l-3.254-3.254a1.027,1.027,0,0,1-.3-.757,1.089,1.089,0,0,1,.341-.795,1.089,1.089,0,0,1,.795-.341,1.089,1.089,0,0,1,.795.341l5.146,5.146a1.152,1.152,0,0,1,.265.378,1.111,1.111,0,0,1,.076.416,1.111,1.111,0,0,1-.076.416,1.154,1.154,0,0,1-.265.378l-5.146,5.146a1.069,1.069,0,0,1-.814.359,1.143,1.143,0,0,1-.776-.359,1.111,1.111,0,0,1-.341-.814,1.05,1.05,0,0,1,.3-.776Z" transform="translate(-120 645)" fill="#0ebbb7"/>
</svg>
