<svg xmlns="http://www.w3.org/2000/svg" width="10" height="5.67" viewBox="0 0 10 5.67">
  <path id="expand_more_FILL0_wght400_GRAD0_opsz48" d="M257.011-609.33a.644.644,0,0,1-.242-.044.669.669,0,0,1-.22-.154l-4.352-4.352a.633.633,0,0,1-.2-.462.633.633,0,0,1,.2-.462.645.645,0,0,1,.473-.2.645.645,0,0,1,.473.2l3.868,3.868,3.868-3.868a.632.632,0,0,1,.462-.2.632.632,0,0,1,.462.2.645.645,0,0,1,.2.473.645.645,0,0,1-.2.472l-4.33,4.33a.669.669,0,0,1-.22.154A.644.644,0,0,1,257.011-609.33Z" transform="translate(-252 615)" fill="#08454a"/>
</svg>
