<svg xmlns="http://www.w3.org/2000/svg" width="9.852" height="17.374" viewBox="0 0 9.852 17.374">
  <path id="expand_more_FILL0_wght400_GRAD0_opsz48" d="M8.706,0a1.12,1.12,0,0,0-.42.076A1.162,1.162,0,0,0,7.9.344L.344,7.9a1.107,1.107,0,0,0,0,1.6,1.12,1.12,0,0,0,.821.344,1.12,1.12,0,0,0,.821-.344l6.721-6.72,6.721,6.72a1.107,1.107,0,0,0,1.6,0,1.152,1.152,0,0,0,0-1.642L9.508.344A1.163,1.163,0,0,0,9.126.076,1.12,1.12,0,0,0,8.706,0Z" transform="translate(0 17.374) rotate(-90)" fill="#0ebbb7"/>
</svg>
