<svg xmlns="http://www.w3.org/2000/svg" width="15.265" height="19.5" viewBox="0 0 15.265 19.5">
  <g id="File_dock_light" transform="translate(-4.75 -2.75)">
    <path id="Контур_231" data-name="Контур 231" d="M8.5,12.5h7.765" transform="translate(0 0.529)" fill="none" stroke="#0ebbb7" stroke-linecap="round" stroke-width="1.5"/>
    <path id="Контур_232" data-name="Контур 232" d="M8.5,15.5h4" transform="translate(0.255 0.706)" fill="none" stroke="#0ebbb7" stroke-linecap="round" stroke-width="1.5"/>
    <path id="Контур_233" data-name="Контур 233" d="M5.5,6.041a3.946,3.946,0,0,1,.173-1.674,1.588,1.588,0,0,1,.694-.694A3.946,3.946,0,0,1,8.041,3.5h4.877a3.4,3.4,0,0,1,.765.044,1.588,1.588,0,0,1,.459.19,3.4,3.4,0,0,1,.572.51L18.52,8.05a3.4,3.4,0,0,1,.51.572,1.591,1.591,0,0,1,.19.459,3.4,3.4,0,0,1,.044.765v9.112a3.946,3.946,0,0,1-.173,1.674,1.589,1.589,0,0,1-.694.694,3.946,3.946,0,0,1-1.674.173H8.041a3.946,3.946,0,0,1-1.674-.173,1.588,1.588,0,0,1-.694-.694A3.946,3.946,0,0,1,5.5,18.959Z" transform="translate(0 0)" fill="none" stroke="#0ebbb7" stroke-width="1.5"/>
    <path id="Контур_234" data-name="Контур 234" d="M12.5,3.5V7.1a3.726,3.726,0,0,0,.163,1.581,1.5,1.5,0,0,0,.656.656A3.727,3.727,0,0,0,14.9,9.5h3.6" transform="translate(0.765)" fill="none" stroke="#0ebbb7" stroke-width="1.5"/>
  </g>
</svg>
