<svg xmlns="http://www.w3.org/2000/svg" width="18.405" height="18.405" viewBox="0 0 18.405 18.405">
  <g id="Edit_light" transform="translate(-3.86 -5.846)">
    <path id="Контур_262" data-name="Контур 262" d="M6.265,22.685h0l.027-.007h0l3.3-.826.056-.014a2.917,2.917,0,0,0,.751-.258,2.92,2.92,0,0,0,.608-.511l.041-.041L20.076,12h0l.029-.029a11.519,11.519,0,0,0,.967-1.04,1.864,1.864,0,0,0,.442-1.149,1.864,1.864,0,0,0-.442-1.149,11.545,11.545,0,0,0-.967-1.04l-.029-.029-.443.444.443-.444-.215-.215-.029-.029a11.522,11.522,0,0,0-1.04-.967,1.713,1.713,0,0,0-2.3,0,11.521,11.521,0,0,0-1.04.967l-.029.029L6.4,16.377l-.041.041a2.921,2.921,0,0,0-.511.608,2.921,2.921,0,0,0-.258.751l-.014.057-.832,3.329-.008.033a4.325,4.325,0,0,0-.119.583.892.892,0,0,0,1.032,1.032,4.3,4.3,0,0,0,.583-.119Z" transform="translate(0 0.681)" fill="none" stroke="#0ebbb7" stroke-width="1.5"/>
    <path id="Контур_263" data-name="Контур 263" d="M12.5,7.825,15.987,5.5s3.2,1.744,3.487,3.487-2.325,3.487-2.325,3.487Z" transform="translate(2.04 1)" fill="#0ebbb7"/>
  </g>
</svg>
