<svg xmlns="http://www.w3.org/2000/svg" width="22.047" height="25.409" viewBox="0 0 22.047 25.409">
  <g id="Load_circle_light" transform="translate(-4.32 -3.5)">
    <path id="Контур_260" data-name="Контур 260" d="M5.239,14.812a10.461,10.461,0,0,0,20.21,0" transform="translate(0 5.594)" fill="none" stroke="#0ebbb7" stroke-linecap="round" stroke-width="1.5"/>
    <path id="Контур_261" data-name="Контур 261" d="M14.627,17.7l-.467.583a.747.747,0,0,0,.933,0Zm.747-13.45a.747.747,0,0,0-1.494,0ZM6.688,12.3l7.473,5.978.933-1.167L7.621,11.136a.775.775,0,0,0-1.079.114A.748.748,0,0,0,6.688,12.3Zm8.406,5.978L22.566,12.3a.772.772,0,0,0,.076-1.053.718.718,0,0,0-1.01-.114L14.16,17.114Zm.281-.583V4.247H13.88V17.7Z" transform="translate(0.717 0)" fill="#0ebbb7"/>
  </g>
</svg>
