<svg xmlns="http://www.w3.org/2000/svg" width="21.75" height="19.5" viewBox="0 0 21.75 19.5">
  <g id="Camera_light" transform="translate(-2.25 -3.25)">
    <path id="Контур_235" data-name="Контур 235" d="M3,10.586A2.086,2.086,0,0,1,5.086,8.5h0A2.086,2.086,0,0,0,6.952,7.347L7.875,5.5a5.053,5.053,0,0,1,.256-.479A2.25,2.25,0,0,1,9.76,4.015,5.054,5.054,0,0,1,10.3,4h5.646a5.053,5.053,0,0,1,.542.015,2.25,2.25,0,0,1,1.629,1.007,5.076,5.076,0,0,1,.256.479L19.3,7.347A2.086,2.086,0,0,0,21.164,8.5h0a2.086,2.086,0,0,1,2.086,2.086v5.628c0,2.255,0,3.383-.517,4.206a3.376,3.376,0,0,1-1.062,1.062C20.847,22,19.72,22,17.464,22H8.786C6.53,22,5.4,22,4.579,21.483a3.375,3.375,0,0,1-1.062-1.062C3,19.6,3,18.47,3,16.214Z" fill="none" stroke="#0ebbb7" stroke-width="1.5"/>
    <circle id="Эллипс_109" data-name="Эллипс 109" cx="3.5" cy="3.5" r="3.5" transform="translate(9.625 10.722)" fill="none" stroke="#0ebbb7" stroke-width="1.5"/>
  </g>
</svg>
