<svg xmlns="http://www.w3.org/2000/svg" width="19.825" height="17.97" viewBox="0 0 19.825 17.97">
  <g id="Group_light" transform="translate(-4.175 -4.748)">
    <circle id="Эллипс_105" data-name="Эллипс 105" cx="3.167" cy="3.167" r="3.167" transform="translate(10.921 5.5)" fill="none" stroke="#0ebab6" stroke-linecap="round" stroke-width="1.5"/>
    <path id="Контур_224" data-name="Контур 224" d="M13.768,6.767a2.534,2.534,0,1,1,.927,3.461" transform="translate(2.559)" fill="none" stroke="#0ebab6" stroke-width="1.5"/>
    <path id="Контур_225" data-name="Контур 225" d="M11.228,6.767a2.534,2.534,0,1,0-.927,3.461" transform="translate(0.62)" fill="none" stroke="#0ebab6" stroke-width="1.5"/>
    <path id="Контур_226" data-name="Контур 226" d="M13.445,12.5c5.169,0,6.5,4.183,6.848,6.343A1.107,1.107,0,0,1,19.146,20.1H7.744A1.107,1.107,0,0,1,6.6,18.843C6.942,16.683,8.276,12.5,13.445,12.5Z" transform="translate(0.643 1.868)" fill="none" stroke="#0ebab6" stroke-linecap="round" stroke-width="1.5"/>
    <path id="Контур_227" data-name="Контур 227" d="M21.217,16.594l-.614.154Zm-7.866-3.585-.468-.427-.786.861,1.15.191Zm5.187,4.958-.608.176.132.457h.476Zm-2.13-5.7A3.48,3.48,0,0,1,19.294,13.8,8.463,8.463,0,0,1,20.6,16.748l1.229-.308a9.712,9.712,0,0,0-1.525-3.406A4.743,4.743,0,0,0,16.408,11Zm-2.589,1.169a3.371,3.371,0,0,1,2.589-1.169V11a4.635,4.635,0,0,0-3.524,1.582Zm-.572.2a5.809,5.809,0,0,1,4.682,4.51l1.217-.352a7.069,7.069,0,0,0-5.691-5.407Zm6.828,3.7H18.538V18.6h1.538Zm.528-.586a.489.489,0,0,1-.528.586V18.6a1.754,1.754,0,0,0,1.757-2.16Z" transform="translate(2.114 1.467)" fill="#0ebab6"/>
    <path id="Контур_228" data-name="Контур 228" d="M12.71,13.009l.1.625,1.15-.191-.786-.861ZM4.844,16.594l.614.154Zm2.68,1.373V18.6H8l.132-.457Zm2.13-5.7a3.37,3.37,0,0,1,2.589,1.169l.936-.854A4.635,4.635,0,0,0,9.654,11Zm-4.2,4.482A8.463,8.463,0,0,1,6.768,13.8a3.48,3.48,0,0,1,2.886-1.529V11a4.743,4.743,0,0,0-3.9,2.035A9.711,9.711,0,0,0,4.23,16.441Zm.528.586a.489.489,0,0,1-.528-.586L4.23,16.441A1.754,1.754,0,0,0,5.986,18.6Zm1.538,0H5.986V18.6H7.524Zm.608.809a5.808,5.808,0,0,1,4.682-4.51l-.208-1.25a7.069,7.069,0,0,0-5.691,5.407Z" transform="translate(0 1.467)" fill="#0ebab6"/>
  </g>
</svg>
