<svg xmlns="http://www.w3.org/2000/svg" width="18" height="18" viewBox="0 0 18 18">
  <path id="search_FILL0_wght400_GRAD0_opsz48_1_" data-name="search_FILL0_wght400_GRAD0_opsz48 (1)" d="M126.569-827.965a6.337,6.337,0,0,1-4.661-1.909A6.283,6.283,0,0,1,120-834.482a6.28,6.28,0,0,1,1.909-4.608A6.294,6.294,0,0,1,126.53-841a6.253,6.253,0,0,1,4.608,1.909,6.305,6.305,0,0,1,1.9,4.612,6.34,6.34,0,0,1-.356,2.109,6.463,6.463,0,0,1-1.069,1.909l6.161,6.11a.732.732,0,0,1,.229.555.769.769,0,0,1-.229.566.769.769,0,0,1-.566.229.732.732,0,0,1-.554-.229l-6.136-6.136a5.612,5.612,0,0,1-1.781,1.031A6.3,6.3,0,0,1,126.569-827.965Zm-.025-1.528a4.761,4.761,0,0,0,3.517-1.464,4.833,4.833,0,0,0,1.448-3.526,4.833,4.833,0,0,0-1.448-3.526,4.761,4.761,0,0,0-3.517-1.464,4.835,4.835,0,0,0-3.553,1.464,4.808,4.808,0,0,0-1.463,3.526,4.808,4.808,0,0,0,1.463,3.526A4.835,4.835,0,0,0,126.543-829.492Z" transform="translate(-120 841)" fill="#08454a" opacity="0.75"/>
</svg>
