<svg xmlns="http://www.w3.org/2000/svg" width="19.5" height="25.929" viewBox="0 0 19.5 25.929">
  <g id="Desk_alt_light_1_" data-name="Desk_alt_light (1)" transform="translate(-4.25 -2.25)">
    <path id="Контур_267" data-name="Контур 267" d="M18.5,5c1.806,0,2.709,0,3.357.445a2.605,2.605,0,0,1,.709.728C23,6.838,23,7.765,23,9.618V22.151c0,2.488,0,3.732-.753,4.5s-1.965.773-4.39.773H10.143c-2.424,0-3.637,0-4.39-.773S5,24.639,5,22.151V9.618c0-1.853,0-2.779.433-3.445a2.606,2.606,0,0,1,.709-.728C6.791,5,7.694,5,9.5,5" fill="none" stroke="#0cb9b5" stroke-width="1.5"/>
    <path id="Контур_268" data-name="Контур 268" d="M9,5a2,2,0,0,1,2-2h2a2,2,0,0,1,0,4H11A2,2,0,0,1,9,5Z" transform="translate(2)" fill="none" stroke="#0cb9b5" stroke-width="1.5"/>
    <path id="Контур_269" data-name="Контур 269" d="M9,12h6" transform="translate(2 2.571)" fill="none" stroke="#0cb9b5" stroke-linecap="round" stroke-width="1.5"/>
    <path id="Контур_270" data-name="Контур 270" d="M9,16h4" transform="translate(1.6 3.714)" fill="none" stroke="#0cb9b5" stroke-linecap="round" stroke-width="1.5"/>
  </g>
</svg>
