<svg xmlns="http://www.w3.org/2000/svg" width="36.913" height="35.268" viewBox="0 0 36.913 35.268">
  <path id="star_FILL0_wght400_GRAD0_opsz48" d="M134.177,293.472l8.136-4.871,8.136,4.923-2.177-9.225,7.152-6.219-9.432-.829-3.679-8.706-3.679,8.654-9.432.829,7.152,6.219Zm8.136-1.244-9.639,5.8a1.473,1.473,0,0,1-.881.233,1.543,1.543,0,0,1-.829-.285,1.6,1.6,0,0,1-.544-.674,1.531,1.531,0,0,1-.078-.933l2.539-10.987-8.5-7.411a1.39,1.39,0,0,1-.492-.8,2.032,2.032,0,0,1,.026-.855,1.265,1.265,0,0,1,.466-.7,1.66,1.66,0,0,1,.881-.337l11.246-.985,4.353-10.365a1.452,1.452,0,0,1,.622-.7,1.591,1.591,0,0,1,1.658,0,1.452,1.452,0,0,1,.622.7l4.353,10.365,11.246.985a1.66,1.66,0,0,1,.881.337,1.265,1.265,0,0,1,.466.7,2.032,2.032,0,0,1,.026.855,1.39,1.39,0,0,1-.492.8l-8.5,7.411,2.539,10.987a1.531,1.531,0,0,1-.078.933,1.6,1.6,0,0,1-.544.674,1.543,1.543,0,0,1-.829.285,1.474,1.474,0,0,1-.881-.233ZM142.314,281.553Z" transform="translate(-123.857 -263)" fill="#feab04"/>
</svg>
